<mxfile host="app.diagrams.net" modified="2023-11-17T17:15:21.614Z" agent="5.0 (Macintosh; Intel Mac OS X 10_15_7) AppleWebKit/537.36 (KHTML, like Gecko) Chrome/119.0.0.0 Safari/537.36" etag="2bKe8Go3IJ4W-L3WEGvl" version="20.2.4" type="github">
  <diagram id="qu7Efr9DcWsJrip5sZVg" name="Page-1">
    <mxGraphModel dx="961" dy="671" grid="1" gridSize="10" guides="1" tooltips="1" connect="1" arrows="1" fold="1" page="1" pageScale="1" pageWidth="850" pageHeight="1100" math="0" shadow="0">
      <root>
        <mxCell id="0" />
        <mxCell id="1" parent="0" />
        <mxCell id="7MBLg3Iw6LVMyKLIHaCV-2" style="edgeStyle=orthogonalEdgeStyle;rounded=0;orthogonalLoop=1;jettySize=auto;html=1;entryX=0;entryY=0.5;entryDx=0;entryDy=0;" edge="1" parent="1" source="7MBLg3Iw6LVMyKLIHaCV-1" target="7MBLg3Iw6LVMyKLIHaCV-3">
          <mxGeometry relative="1" as="geometry">
            <mxPoint x="440" y="250" as="targetPoint" />
          </mxGeometry>
        </mxCell>
        <mxCell id="7MBLg3Iw6LVMyKLIHaCV-9" style="edgeStyle=orthogonalEdgeStyle;rounded=0;orthogonalLoop=1;jettySize=auto;html=1;entryX=-0.035;entryY=0.626;entryDx=0;entryDy=0;entryPerimeter=0;" edge="1" parent="1" source="7MBLg3Iw6LVMyKLIHaCV-1" target="7MBLg3Iw6LVMyKLIHaCV-4">
          <mxGeometry relative="1" as="geometry">
            <Array as="points">
              <mxPoint x="420" y="140" />
              <mxPoint x="420" y="258" />
            </Array>
          </mxGeometry>
        </mxCell>
        <mxCell id="7MBLg3Iw6LVMyKLIHaCV-1" value="Bundler.js" style="rounded=0;whiteSpace=wrap;html=1;" vertex="1" parent="1">
          <mxGeometry x="280" y="110" width="110" height="60" as="geometry" />
        </mxCell>
        <mxCell id="7MBLg3Iw6LVMyKLIHaCV-6" style="edgeStyle=orthogonalEdgeStyle;rounded=0;orthogonalLoop=1;jettySize=auto;html=1;" edge="1" parent="1" source="7MBLg3Iw6LVMyKLIHaCV-3">
          <mxGeometry relative="1" as="geometry">
            <mxPoint x="649.9999999999998" y="40" as="targetPoint" />
          </mxGeometry>
        </mxCell>
        <mxCell id="7MBLg3Iw6LVMyKLIHaCV-3" value="Path&lt;br&gt;(Class)" style="rounded=1;whiteSpace=wrap;html=1;" vertex="1" parent="1">
          <mxGeometry x="460" y="10" width="120" height="60" as="geometry" />
        </mxCell>
        <mxCell id="7MBLg3Iw6LVMyKLIHaCV-4" value="Bundler&lt;br&gt;(Class)" style="rounded=1;whiteSpace=wrap;html=1;" vertex="1" parent="1">
          <mxGeometry x="510" y="220" width="120" height="60" as="geometry" />
        </mxCell>
        <mxCell id="7MBLg3Iw6LVMyKLIHaCV-8" value="Returns&amp;nbsp;&lt;br&gt;router; tokenIn ; tokenOut" style="rounded=1;whiteSpace=wrap;html=1;" vertex="1" parent="1">
          <mxGeometry x="650" y="10" width="120" height="60" as="geometry" />
        </mxCell>
        <mxCell id="7MBLg3Iw6LVMyKLIHaCV-10" value="Bundle are one or more transaction wrap together" style="text;html=1;strokeColor=none;fillColor=none;align=center;verticalAlign=middle;whiteSpace=wrap;rounded=0;" vertex="1" parent="1">
          <mxGeometry x="650" y="230" width="110" height="30" as="geometry" />
        </mxCell>
      </root>
    </mxGraphModel>
  </diagram>
</mxfile>
